<svg width="103" height="37" viewBox="0 0 103 37" fill="none" xmlns="http://www.w3.org/2000/svg">
<rect width="103" height="37" rx="3" fill="#2A4FD5"/>
<path d="M51.0625 21H52.9375C53.2492 21 53.5 21.2508 53.5 21.5625V25.5H55.5555C55.9727 25.5 56.1812 26.0039 55.8859 26.2992L52.3211 29.8664C52.1453 30.0422 51.857 30.0422 51.6812 29.8664L48.1117 26.2992C47.8164 26.0039 48.025 25.5 48.4422 25.5H50.5V21.5625C50.5 21.2508 50.7508 21 51.0625 21ZM58 29.8125V32.4375C58 32.7492 57.7492 33 57.4375 33H46.5625C46.2508 33 46 32.7492 46 32.4375V29.8125C46 29.5008 46.2508 29.25 46.5625 29.25H50.0008L51.1492 30.3984C51.6203 30.8695 52.3797 30.8695 52.8508 30.3984L53.9992 29.25H57.4375C57.7492 29.25 58 29.5008 58 29.8125ZM55.0938 31.875C55.0938 31.6172 54.8828 31.4062 54.625 31.4062C54.3672 31.4062 54.1562 31.6172 54.1562 31.875C54.1562 32.1328 54.3672 32.3438 54.625 32.3438C54.8828 32.3438 55.0938 32.1328 55.0938 31.875ZM56.5938 31.875C56.5938 31.6172 56.3828 31.4062 56.125 31.4062C55.8672 31.4062 55.6562 31.6172 55.6562 31.875C55.6562 32.1328 55.8672 32.3438 56.125 32.3438C56.3828 32.3438 56.5938 32.1328 56.5938 31.875Z" fill="white"/>
<path d="M16.9902 16V7.46875H19.3984C20.1406 7.46875 20.7969 7.63281 21.3672 7.96094C21.9375 8.28906 22.377 8.75586 22.6855 9.36133C22.998 9.9668 23.1562 10.6621 23.1602 11.4473V11.9922C23.1602 12.7969 23.0039 13.502 22.6914 14.1074C22.3828 14.7129 21.9395 15.1777 21.3613 15.502C20.7871 15.8262 20.1172 15.9922 19.3516 16H16.9902ZM18.1152 8.39453V15.0801H19.2988C20.166 15.0801 20.8398 14.8105 21.3203 14.2715C21.8047 13.7324 22.0469 12.9648 22.0469 11.9688V11.4707C22.0469 10.502 21.8184 9.75 21.3613 9.21484C20.9082 8.67578 20.2637 8.40234 19.4277 8.39453H18.1152ZM24.4082 12.7715C24.4082 12.1504 24.5293 11.5918 24.7715 11.0957C25.0176 10.5996 25.3574 10.2168 25.791 9.94727C26.2285 9.67773 26.7266 9.54297 27.2852 9.54297C28.1484 9.54297 28.8457 9.8418 29.377 10.4395C29.9121 11.0371 30.1797 11.832 30.1797 12.8242V12.9004C30.1797 13.5176 30.0605 14.0723 29.8223 14.5645C29.5879 15.0527 29.25 15.4336 28.8086 15.707C28.3711 15.9805 27.8672 16.1172 27.2969 16.1172C26.4375 16.1172 25.7402 15.8184 25.2051 15.2207C24.6738 14.623 24.4082 13.832 24.4082 12.8477V12.7715ZM25.498 12.9004C25.498 13.6035 25.6602 14.168 25.9844 14.5938C26.3125 15.0195 26.75 15.2324 27.2969 15.2324C27.8477 15.2324 28.2852 15.0176 28.6094 14.5879C28.9336 14.1543 29.0957 13.5488 29.0957 12.7715C29.0957 12.0762 28.9297 11.5137 28.5977 11.084C28.2695 10.6504 27.832 10.4336 27.2852 10.4336C26.75 10.4336 26.3184 10.6465 25.9902 11.0723C25.6621 11.498 25.498 12.1074 25.498 12.9004ZM37.1523 14.5059L38.3711 9.66016H39.4551L37.6094 16H36.7305L35.1895 11.1953L33.6895 16H32.8105L30.9707 9.66016H32.0488L33.2969 14.4062L34.7734 9.66016H35.6465L37.1523 14.5059ZM41.5879 9.66016L41.623 10.457C42.1074 9.84766 42.7402 9.54297 43.5215 9.54297C44.8613 9.54297 45.5371 10.2988 45.5488 11.8105V16H44.4648V11.8047C44.4609 11.3477 44.3555 11.0098 44.1484 10.791C43.9453 10.5723 43.627 10.4629 43.1934 10.4629C42.8418 10.4629 42.5332 10.5566 42.2676 10.7441C42.002 10.9316 41.7949 11.1777 41.6465 11.4824V16H40.5625V9.66016H41.5879ZM48.3613 16H47.2773V7H48.3613V16ZM49.8145 12.7715C49.8145 12.1504 49.9355 11.5918 50.1777 11.0957C50.4238 10.5996 50.7637 10.2168 51.1973 9.94727C51.6348 9.67773 52.1328 9.54297 52.6914 9.54297C53.5547 9.54297 54.252 9.8418 54.7832 10.4395C55.3184 11.0371 55.5859 11.832 55.5859 12.8242V12.9004C55.5859 13.5176 55.4668 14.0723 55.2285 14.5645C54.9941 15.0527 54.6562 15.4336 54.2148 15.707C53.7773 15.9805 53.2734 16.1172 52.7031 16.1172C51.8438 16.1172 51.1465 15.8184 50.6113 15.2207C50.0801 14.623 49.8145 13.832 49.8145 12.8477V12.7715ZM50.9043 12.9004C50.9043 13.6035 51.0664 14.168 51.3906 14.5938C51.7188 15.0195 52.1562 15.2324 52.7031 15.2324C53.2539 15.2324 53.6914 15.0176 54.0156 14.5879C54.3398 14.1543 54.502 13.5488 54.502 12.7715C54.502 12.0762 54.3359 11.5137 54.0039 11.084C53.6758 10.6504 53.2383 10.4336 52.6914 10.4336C52.1562 10.4336 51.7246 10.6465 51.3965 11.0723C51.0684 11.498 50.9043 12.1074 50.9043 12.9004ZM60.8594 16C60.7969 15.875 60.7461 15.6523 60.707 15.332C60.2031 15.8555 59.6016 16.1172 58.9023 16.1172C58.2773 16.1172 57.7637 15.9414 57.3613 15.5898C56.9629 15.2344 56.7637 14.7852 56.7637 14.2422C56.7637 13.582 57.0137 13.0703 57.5137 12.707C58.0176 12.3398 58.7246 12.1562 59.6348 12.1562H60.6895V11.6582C60.6895 11.2793 60.5762 10.9785 60.3496 10.7559C60.123 10.5293 59.7891 10.416 59.3477 10.416C58.9609 10.416 58.6367 10.5137 58.375 10.709C58.1133 10.9043 57.9824 11.1406 57.9824 11.418H56.8926C56.8926 11.1016 57.0039 10.7969 57.2266 10.5039C57.4531 10.207 57.7578 9.97266 58.1406 9.80078C58.5273 9.62891 58.9512 9.54297 59.4121 9.54297C60.1426 9.54297 60.7148 9.72656 61.1289 10.0938C61.543 10.457 61.7578 10.959 61.7734 11.5996V14.5176C61.7734 15.0996 61.8477 15.5625 61.9961 15.9062V16H60.8594ZM59.0605 15.1738C59.4004 15.1738 59.7227 15.0859 60.0273 14.9102C60.332 14.7344 60.5527 14.5059 60.6895 14.2246V12.9238H59.8398C58.5117 12.9238 57.8477 13.3125 57.8477 14.0898C57.8477 14.4297 57.9609 14.6953 58.1875 14.8867C58.4141 15.0781 58.7051 15.1738 59.0605 15.1738ZM63.209 12.7773C63.209 11.8047 63.4395 11.0234 63.9004 10.4336C64.3613 9.83984 64.9648 9.54297 65.7109 9.54297C66.4531 9.54297 67.041 9.79688 67.4746 10.3047V7H68.5586V16H67.5625L67.5098 15.3203C67.0762 15.8516 66.4727 16.1172 65.6992 16.1172C64.9648 16.1172 64.3652 15.8164 63.9004 15.2148C63.4395 14.6133 63.209 13.8281 63.209 12.8594V12.7773ZM64.293 12.9004C64.293 13.6191 64.4414 14.1816 64.7383 14.5879C65.0352 14.9941 65.4453 15.1973 65.9688 15.1973C66.6562 15.1973 67.1582 14.8887 67.4746 14.2715V11.3594C67.1504 10.7617 66.6523 10.4629 65.9805 10.4629C65.4492 10.4629 65.0352 10.668 64.7383 11.0781C64.4414 11.4883 64.293 12.0957 64.293 12.9004ZM79.668 13.293C79.5625 14.1953 79.2285 14.8926 78.666 15.3848C78.1074 15.873 77.3633 16.1172 76.4336 16.1172C75.4258 16.1172 74.6172 15.7559 74.0078 15.0332C73.4023 14.3105 73.0996 13.3438 73.0996 12.1328V11.3125C73.0996 10.5195 73.2402 9.82227 73.5215 9.2207C73.8066 8.61914 74.209 8.1582 74.7285 7.83789C75.248 7.51367 75.8496 7.35156 76.5332 7.35156C77.4395 7.35156 78.166 7.60547 78.7129 8.11328C79.2598 8.61719 79.5781 9.31641 79.668 10.2109H78.5371C78.4395 9.53125 78.2266 9.03906 77.8984 8.73438C77.5742 8.42969 77.1191 8.27734 76.5332 8.27734C75.8145 8.27734 75.25 8.54297 74.8398 9.07422C74.4336 9.60547 74.2305 10.3613 74.2305 11.3418V12.168C74.2305 13.0938 74.4238 13.8301 74.8105 14.377C75.1973 14.9238 75.7383 15.1973 76.4336 15.1973C77.0586 15.1973 77.5371 15.0566 77.8691 14.7754C78.2051 14.4902 78.4277 13.9961 78.5371 13.293H79.668ZM84.0332 14.5059L86.4707 7.46875H87.7012L84.5371 16H83.541L80.3828 7.46875H81.6074L84.0332 14.5059Z" fill="white"/>
</svg>
