<svg width="150" height="40" viewBox="0 0 115 23" fill="none" xmlns="http://www.w3.org/2000/svg">
<path fill-rule="evenodd" clip-rule="evenodd" d="M25.132 20.04C25.132 20.4507 25.076 20.7867 24.964 21.048C24.8834 21.2226 24.7835 21.373 24.6643 21.4993V22H23.172H22.0603H14.408C14.2027 22 13.9973 21.9813 13.792 21.944C13.5867 21.888 13.4 21.804 13.232 21.692C13.0827 21.5613 12.9613 21.3933 12.868 21.188C12.7747 20.964 12.728 20.6747 12.728 20.32V18.9647H15.248V20.04H22.0603V18.9647H24.6643V20.04H25.132ZM31.2163 18.9647V22H33.8203V18.9647H31.2163ZM33.8203 17.9647H31.2163V14.384C31.2163 13.5625 31.1614 12.8508 31.0515 12.2489H33.7334C33.7913 12.7479 33.8203 13.2729 33.8203 13.824V17.9647ZM38.3232 18.9647C38.6032 19.4575 38.9336 19.9 39.3144 20.292C39.9491 20.9453 40.7144 21.4493 41.6104 21.804C42.5064 22.1587 43.5144 22.336 44.6344 22.336C45.8478 22.336 46.9211 22.252 47.8544 22.084C48.7878 21.916 49.5531 21.748 50.1504 21.58V18.9647H47.5464V19.732C47.2851 19.8067 46.9118 19.8813 46.4264 19.956C45.9598 20.012 45.3718 20.04 44.6624 20.04C43.423 20.04 42.403 19.6816 41.6025 18.9647H38.3232ZM40.7903 17.9647H37.8507C37.8439 17.9472 37.8371 17.9296 37.8304 17.912C37.4944 16.96 37.3264 15.896 37.3264 14.72C37.3264 13.8385 37.4131 13.0148 37.5866 12.2489H40.3643C40.3281 12.3691 40.2955 12.4928 40.2664 12.62C40.1171 13.2733 40.0424 13.9733 40.0424 14.72C40.0424 16.0287 40.2917 17.1103 40.7903 17.9647ZM47.5464 17.9647H50.1504V12.2489H47.5464V17.9647ZM54.6267 18.9647V22H57.2307V18.9647H54.6267ZM57.2307 17.9647H54.6267V12.2489H57.2307V17.9647ZM65.5313 18.9647C65.7691 19.4063 66.0518 19.8114 66.3795 20.18C66.9768 20.852 67.7328 21.384 68.6475 21.776C69.5808 22.1493 70.6822 22.336 71.9515 22.336C72.9595 22.336 73.8555 22.2427 74.6395 22.056C75.4422 21.8693 76.0022 21.692 76.3195 21.524L75.9555 19.34C75.6382 19.4893 75.1622 19.648 74.5275 19.816C73.9115 19.9653 73.1462 20.04 72.2315 20.04C70.6786 20.04 69.5182 19.6816 68.7504 18.9647H65.5313ZM67.9943 17.9647H65.0913C65.0722 17.9102 65.0536 17.8553 65.0355 17.8C64.7555 16.8667 64.6155 15.8493 64.6155 14.748C64.6155 13.8296 64.7104 12.9965 64.9002 12.2489H67.5947C67.4968 12.6012 67.4277 12.9582 67.3875 13.32H74.6115C74.6175 12.9406 74.5905 12.5836 74.5305 12.2489H77.1598C77.2716 12.9291 77.3275 13.6781 77.3275 14.496V14.944C77.3275 15.112 77.3182 15.2707 77.2995 15.42H67.3315C67.4064 16.431 67.6273 17.2792 67.9943 17.9647ZM81.0681 18.9647V22H83.6721V18.9647H81.0681ZM83.6721 17.9647H81.0681V12.2489H83.6721V17.9647ZM88.1501 18.9647V22H90.7541V18.9647H88.1501ZM90.7541 17.9647H88.1501V12.2489H90.7541V17.9647ZM97.3061 18.9647V22H99.9101V18.9647H97.3061ZM99.9101 17.9647H97.3061V14.384C97.3061 13.5625 97.2512 12.8508 97.1414 12.2489H99.8233C99.8812 12.7479 99.9101 13.2729 99.9101 13.824V17.9647ZM103.326 18.9647C103.395 19.2716 103.49 19.5553 103.612 19.816C103.892 20.4133 104.284 20.8987 104.788 21.272C105.292 21.6267 105.89 21.888 106.58 22.056C107.271 22.224 108.027 22.308 108.848 22.308C109.427 22.308 110.006 22.28 110.584 22.224C111.182 22.1867 111.732 22.14 112.236 22.084C112.74 22.028 113.188 21.972 113.58 21.916C113.991 21.8413 114.308 21.7853 114.532 21.748V18.9647H111.984V19.928C111.667 20.0027 111.266 20.0587 110.78 20.096C110.314 20.1147 109.772 20.124 109.156 20.124C108.13 20.124 107.318 19.9467 106.72 19.592C106.467 19.4334 106.267 19.2243 106.121 18.9647H103.326ZM105.838 17.9647H103.199C103.194 17.865 103.192 17.7634 103.192 17.66C103.192 16.8573 103.351 16.1667 103.668 15.588C104.004 15.0093 104.452 14.5427 105.012 14.188C105.572 13.8333 106.226 13.572 106.972 13.404C107.719 13.236 108.503 13.152 109.324 13.152C109.586 13.152 109.856 13.1707 110.136 13.208C110.416 13.2267 110.678 13.264 110.92 13.32C111.182 13.3573 111.406 13.3947 111.592 13.432C111.779 13.4693 111.91 13.4973 111.984 13.516V12.788C111.984 12.6066 111.976 12.427 111.959 12.2489H114.525C114.53 12.3799 114.532 12.513 114.532 12.648V17.9647H111.984V15.588C111.798 15.4947 111.49 15.42 111.06 15.364C110.65 15.2893 110.146 15.252 109.548 15.252C109.156 15.252 108.736 15.28 108.288 15.336C107.859 15.392 107.458 15.5133 107.084 15.7C106.73 15.868 106.431 16.1107 106.188 16.428C105.946 16.7267 105.824 17.128 105.824 17.632C105.824 17.7472 105.829 17.858 105.838 17.9647ZM24.6643 17.9647H22.0603V12.2489H24.6643V17.9647ZM15.248 17.9647V12.2489H1.96634C1.80684 12.7779 1.66072 13.3309 1.52799 13.908C1.25575 15.1331 1.07375 16.4853 0.981979 17.9647H3.51206C3.54219 17.543 3.58084 17.1334 3.62799 16.736C3.75865 15.6347 3.95465 14.5987 4.21599 13.628H12.728V17.9647H15.248ZM3.45741 18.9647C3.44046 19.4043 3.43199 19.8561 3.43199 20.32C3.43199 21.0293 3.27332 21.4867 2.95599 21.692C2.65732 21.8973 2.30265 22 1.89199 22H0.911987V20.32C0.911987 19.8577 0.919439 19.406 0.934342 18.9647H3.45741ZM5.03188 11.2489H2.294C2.57437 10.4601 2.88837 9.73179 3.23599 9.064C3.96399 7.68267 4.80399 6.53467 5.75599 5.62C6.70799 4.70534 7.71599 3.968 8.77999 3.408C9.84399 2.848 10.9267 2.44667 12.028 2.204C13.148 1.96134 14.2213 1.84 15.248 1.84C15.8827 1.84 16.2933 1.99867 16.48 2.316C16.6667 2.63334 16.76 2.97867 16.76 3.352V4.08H15.248V11.2489H12.728V4.36C11.0853 4.73334 9.58265 5.508 8.21999 6.684C6.91912 7.78885 5.85641 9.3105 5.03188 11.2489ZM24.6643 11.2489H22.0603V7.86C22.6576 7.71067 23.451 7.552 24.4403 7.384C25.4296 7.216 26.5683 7.132 27.8563 7.132C29.0136 7.132 29.975 7.3 30.7403 7.636C31.5056 7.95334 32.1123 8.41067 32.5603 9.008C33.027 9.58667 33.3536 10.2867 33.5403 11.108C33.5509 11.1547 33.5612 11.2017 33.5712 11.2489H30.7976C30.698 10.9832 30.5763 10.7496 30.4323 10.548C30.1523 10.156 29.779 9.876 29.3123 9.708C28.8456 9.52134 28.267 9.428 27.5763 9.428C27.2963 9.428 27.007 9.43734 26.7083 9.456C26.4096 9.47467 26.1203 9.50267 25.8403 9.54C25.579 9.55867 25.3363 9.58667 25.1123 9.624C24.907 9.66134 24.7576 9.68934 24.6643 9.708V11.2489ZM50.1504 0.272003V11.2489H47.5464V10.52C47.2291 10.2587 46.7718 10.0067 46.1744 9.764C45.5771 9.52134 44.9238 9.4 44.2144 9.4C43.4678 9.4 42.8238 9.54 42.2824 9.82C41.7598 10.0813 41.3304 10.4547 40.9944 10.94C40.9233 11.0388 40.8563 11.1418 40.7936 11.2489H37.8821C38.1701 10.4805 38.5542 9.80824 39.0344 9.232C39.5944 8.56 40.2758 8.03734 41.0784 7.664C41.8998 7.29067 42.8331 7.104 43.8784 7.104C44.7184 7.104 45.4558 7.216 46.0904 7.44C46.7438 7.664 47.2291 7.87867 47.5464 8.084V0.720002L50.1504 0.272003ZM54.6267 11.2489H57.2307V9.764C57.38 9.72667 57.688 9.66134 58.1547 9.568C58.64 9.456 59.1254 9.4 59.6107 9.4C60.3574 9.4 60.964 9.456 61.4307 9.568C61.916 9.66134 62.2614 9.74534 62.4667 9.82L62.9147 7.552C62.8027 7.51467 62.6254 7.47734 62.3827 7.44C62.1587 7.384 61.9067 7.33734 61.6267 7.3C61.3467 7.244 61.0574 7.20667 60.7587 7.188C60.4787 7.15067 60.2267 7.132 60.0027 7.132C58.864 7.132 57.8374 7.23467 56.9227 7.44C56.008 7.62667 55.2427 7.832 54.6267 8.056V11.2489ZM65.2303 11.2489H67.9961C68.1356 10.9967 68.2967 10.7631 68.4795 10.548C68.7968 10.1747 69.1795 9.876 69.6275 9.652C70.0942 9.40934 70.6262 9.288 71.2235 9.288C72.2875 9.288 73.1182 9.67067 73.7155 10.436C73.9196 10.6834 74.0889 10.9544 74.2233 11.2489H76.9416C76.6803 10.3104 76.2863 9.53544 75.7595 8.924C74.7142 7.692 73.2115 7.076 71.2515 7.076C70.4115 7.076 69.5902 7.23467 68.7875 7.552C67.9848 7.86934 67.2755 8.34534 66.6595 8.98C66.0732 9.58411 65.5967 10.3404 65.2303 11.2489ZM81.0681 11.2489H83.6721V7.44H81.0681V11.2489ZM88.1501 11.2489H90.7541V9.708C90.8475 9.68934 90.9968 9.66134 91.2021 9.624C91.4261 9.58667 91.6688 9.55867 91.9301 9.54C92.2101 9.50267 92.4995 9.47467 92.7981 9.456C93.0968 9.43734 93.3861 9.428 93.6661 9.428C94.3568 9.428 94.9355 9.52134 95.4021 9.708C95.8688 9.876 96.2421 10.156 96.5221 10.548C96.6661 10.7496 96.7879 10.9832 96.8874 11.2489H99.6611C99.6511 11.2017 99.6408 11.1547 99.6301 11.108C99.4435 10.2867 99.1168 9.58667 98.6501 9.008C98.2021 8.41067 97.5955 7.95334 96.8301 7.636C96.0648 7.3 95.1035 7.132 93.9461 7.132C92.6581 7.132 91.5195 7.216 90.5301 7.384C89.5408 7.552 88.7475 7.71067 88.1501 7.86V11.2489ZM114.252 10.408C114.327 10.6764 114.386 10.9567 114.431 11.2489H111.771C111.672 10.9348 111.529 10.6545 111.34 10.408C111.098 10.072 110.762 9.81067 110.332 9.624C109.922 9.41867 109.38 9.316 108.708 9.316C107.85 9.316 107.094 9.38134 106.44 9.512C105.806 9.624 105.33 9.74534 105.012 9.876L104.704 7.72C105.04 7.57067 105.6 7.43067 106.384 7.3C107.168 7.15067 108.018 7.076 108.932 7.076C109.978 7.076 110.855 7.216 111.564 7.496C112.292 7.75734 112.871 8.14 113.3 8.644C113.748 9.12934 114.066 9.71734 114.252 10.408ZM82.3561 4.808C81.8894 4.808 81.4881 4.65867 81.1521 4.36C80.8348 4.04267 80.6761 3.62267 80.6761 3.1C80.6761 2.57734 80.8348 2.16667 81.1521 1.868C81.4881 1.55067 81.8894 1.392 82.3561 1.392C82.8228 1.392 83.2148 1.55067 83.5321 1.868C83.8681 2.16667 84.0361 2.57734 84.0361 3.1C84.0361 3.62267 83.8681 4.04267 83.5321 4.36C83.2148 4.65867 82.8228 4.808 82.3561 4.808Z" fill="white"/>
</svg>
